<mxfile host="app.diagrams.net" modified="2025-01-27T10:00:00.000Z" agent="5.0" etag="mno345" version="24.7.17" type="device">
  <diagram name="Deployment Architecture" id="deployment-architecture">
    <mxGraphModel dx="1422" dy="794" grid="1" gridSize="10" guides="1" tooltips="1" connect="1" arrows="1" fold="1" page="1" pageScale="1" pageWidth="1169" pageHeight="827" math="0" shadow="0">
      <root>
        <mxCell id="0" />
        <mxCell id="1" parent="0" />
        
        <!-- Title -->
        <mxCell id="title" value="CertA Deployment Architecture" style="text;html=1;strokeColor=none;fillColor=none;align=center;verticalAlign=middle;whiteSpace=wrap;rounded=0;fontSize=24;fontStyle=1;" vertex="1" parent="1">
          <mxGeometry x="400" y="20" width="400" height="40" as="geometry" />
        </mxCell>
        
        <!-- Internet -->
        <mxCell id="internet" value="Internet" style="rounded=1;whiteSpace=wrap;html=1;fillColor=#dae8fc;strokeColor=#6c8ebf;fontSize=14;fontStyle=1;" vertex="1" parent="1">
          <mxGeometry x="50" y="80" width="200" height="40" as="geometry" />
        </mxCell>
        
        <mxCell id="users" value="Users" style="rounded=1;whiteSpace=wrap;html=1;fillColor=#e1d5e7;strokeColor=#9673a6;" vertex="1" parent="1">
          <mxGeometry x="70" y="140" width="80" height="30" as="geometry" />
        </mxCell>
        
        <mxCell id="admins" value="Admins" style="rounded=1;whiteSpace=wrap;html=1;fillColor=#e1d5e7;strokeColor=#9673a6;" vertex="1" parent="1">
          <mxGeometry x="170" y="140" width="80" height="30" as="geometry" />
        </mxCell>
        
        <!-- Load Balancer -->
        <mxCell id="load-balancer" value="HAProxy Load Balancer&#xa;Port 80/443" style="rounded=1;whiteSpace=wrap;html=1;fillColor=#fff2cc;strokeColor=#d6b656;fontSize=12;align=center;" vertex="1" parent="1">
          <mxGeometry x="350" y="140" width="120" height="60" as="geometry" />
        </mxCell>
        
        <!-- Docker Swarm Cluster -->
        <mxCell id="swarm-cluster" value="Docker Swarm Cluster" style="rounded=1;whiteSpace=wrap;html=1;fillColor=#d5e8d4;strokeColor=#82b366;fontSize=14;fontStyle=1;" vertex="1" parent="1">
          <mxGeometry x="550" y="80" width="400" height="40" as="geometry" />
        </mxCell>
        
        <!-- Manager Node -->
        <mxCell id="manager-node" value="Manager Node" style="rounded=1;whiteSpace=wrap;html=1;fillColor=#d5e8d4;strokeColor=#82b366;fontSize=12;fontStyle=1;" vertex="1" parent="1">
          <mxGeometry x="570" y="140" width="120" height="40" as="geometry" />
        </mxCell>
        
        <mxCell id="manager-services" value="CertA App (Replica 1)&#xa;PostgreSQL&#xa;Data Protection Keys" style="rounded=1;whiteSpace=wrap;html=1;fillColor=#d5e8d4;strokeColor=#82b366;fontSize=10;align=center;" vertex="1" parent="1">
          <mxGeometry x="570" y="200" width="120" height="80" as="geometry" />
        </mxCell>
        
        <!-- Worker Node 1 -->
        <mxCell id="worker-node1" value="Worker Node 1" style="rounded=1;whiteSpace=wrap;html=1;fillColor=#d5e8d4;strokeColor=#82b366;fontSize=12;fontStyle=1;" vertex="1" parent="1">
          <mxGeometry x="720" y="140" width="120" height="40" as="geometry" />
        </mxCell>
        
        <mxCell id="worker1-services" value="CertA App (Replica 2)&#xa;Shared PostgreSQL&#xa;Shared Data Protection" style="rounded=1;whiteSpace=wrap;html=1;fillColor=#d5e8d4;strokeColor=#82b366;fontSize=10;align=center;" vertex="1" parent="1">
          <mxGeometry x="720" y="200" width="120" height="80" as="geometry" />
        </mxCell>
        
        <!-- Worker Node 2 -->
        <mxCell id="worker-node2" value="Worker Node 2" style="rounded=1;whiteSpace=wrap;html=1;fillColor=#d5e8d4;strokeColor=#82b366;fontSize=12;fontStyle=1;" vertex="1" parent="1">
          <mxGeometry x="870" y="140" width="120" height="40" as="geometry" />
        </mxCell>
        
        <mxCell id="worker2-services" value="CertA App (Replica 3)&#xa;Shared PostgreSQL&#xa;Shared Data Protection" style="rounded=1;whiteSpace=wrap;html=1;fillColor=#d5e8d4;strokeColor=#82b366;fontSize=10;align=center;" vertex="1" parent="1">
          <mxGeometry x="870" y="200" width="120" height="80" as="geometry" />
        </mxCell>
        
        <!-- Shared Storage -->
        <mxCell id="shared-storage" value="Shared Storage" style="rounded=1;whiteSpace=wrap;html=1;fillColor=#f8cecc;strokeColor=#b85450;fontSize=14;fontStyle=1;" vertex="1" parent="1">
          <mxGeometry x="550" y="320" width="400" height="40" as="geometry" />
        </mxCell>
        
        <mxCell id="postgresql-storage" value="PostgreSQL Database&#xa;Persistent Volume&#xa;User Data & Certificates" style="rounded=1;whiteSpace=wrap;html=1;fillColor=#f8cecc;strokeColor=#b85450;fontSize=11;align=center;" vertex="1" parent="1">
          <mxGeometry x="570" y="380" width="120" height="80" as="geometry" />
        </mxCell>
        
        <mxCell id="ca-keys-storage" value="CA Keys Storage&#xa;Persistent Volume&#xa;Root CA & Private Keys" style="rounded=1;whiteSpace=wrap;html=1;fillColor=#f8cecc;strokeColor=#b85450;fontSize=11;align=center;" vertex="1" parent="1">
          <mxGeometry x="720" y="380" width="120" height="80" as="geometry" />
        </mxCell>
        
        <mxCell id="logs-storage" value="Logs Storage&#xa;Persistent Volume&#xa;Application & Audit Logs" style="rounded=1;whiteSpace=wrap;html=1;fillColor=#f8cecc;strokeColor=#b85450;fontSize=11;align=center;" vertex="1" parent="1">
          <mxGeometry x="870" y="380" width="120" height="80" as="geometry" />
        </mxCell>
        
        <!-- External Services -->
        <mxCell id="external-services" value="External Services" style="rounded=1;whiteSpace=wrap;html=1;fillColor=#ffe6cc;strokeColor=#d79b00;fontSize=14;fontStyle=1;" vertex="1" parent="1">
          <mxGeometry x="50" y="320" width="200" height="40" as="geometry" />
        </mxCell>
        
        <mxCell id="docker-hub" value="Docker Hub&#xa;judyandiealvarez/certa" style="rounded=1;whiteSpace=wrap;html=1;fillColor=#ffe6cc;strokeColor=#d79b00;fontSize=11;align=center;" vertex="1" parent="1">
          <mxGeometry x="70" y="380" width="80" height="60" as="geometry" />
        </mxCell>
        
        <mxCell id="github" value="GitHub&#xa;CI/CD Pipeline" style="rounded=1;whiteSpace=wrap;html=1;fillColor=#ffe6cc;strokeColor=#d79b00;fontSize=11;align=center;" vertex="1" parent="1">
          <mxGeometry x="170" y="380" width="80" height="60" as="geometry" />
        </mxCell>
        
        <!-- Network Configuration -->
        <mxCell id="network-config" value="Network Configuration" style="rounded=1;whiteSpace=wrap;html=1;fillColor=#f5f5f5;strokeColor=#666666;fontSize=14;fontStyle=1;" vertex="1" parent="1">
          <mxGeometry x="50" y="500" width="200" height="40" as="geometry" />
        </mxCell>
        
        <mxCell id="overlay-network" value="Docker Overlay Network&#xa;certa_network" style="rounded=1;whiteSpace=wrap;html=1;fillColor=#f5f5f5;strokeColor=#666666;fontSize=11;align=center;" vertex="1" parent="1">
          <mxGeometry x="70" y="560" width="80" height="50" as="geometry" />
        </mxCell>
        
        <mxCell id="port-mapping" value="Port Mapping&#xa;8080:8080" style="rounded=1;whiteSpace=wrap;html=1;fillColor=#f5f5f5;strokeColor=#666666;fontSize=11;align=center;" vertex="1" parent="1">
          <mxGeometry x="170" y="560" width="80" height="50" as="geometry" />
        </mxCell>
        
        <!-- Security Configuration -->
        <mxCell id="security-config" value="Security Configuration" style="rounded=1;whiteSpace=wrap;html=1;fillColor=#f5f5f5;strokeColor=#666666;fontSize=14;fontStyle=1;" vertex="1" parent="1">
          <mxGeometry x="300" y="500" width="200" height="40" as="geometry" />
        </mxCell>
        
        <mxCell id="firewall" value="Firewall Rules&#xa;Port 80, 443, 8080" style="rounded=1;whiteSpace=wrap;html=1;fillColor=#f5f5f5;strokeColor=#666666;fontSize=11;align=center;" vertex="1" parent="1">
          <mxGeometry x="320" y="560" width="80" height="50" as="geometry" />
        </mxCell>
        
        <mxCell id="ssl-termination" value="SSL Termination&#xa;HAProxy" style="rounded=1;whiteSpace=wrap;html=1;fillColor=#f5f5f5;strokeColor=#666666;fontSize=11;align=center;" vertex="1" parent="1">
          <mxGeometry x="420" y="560" width="80" height="50" as="geometry" />
        </mxCell>
        
        <!-- Monitoring -->
        <mxCell id="monitoring" value="Monitoring & Logging" style="rounded=1;whiteSpace=wrap;html=1;fillColor=#f5f5f5;strokeColor=#666666;fontSize=14;fontStyle=1;" vertex="1" parent="1">
          <mxGeometry x="550" y="500" width="200" height="40" as="geometry" />
        </mxCell>
        
        <mxCell id="health-checks" value="Health Checks&#xa;Docker Swarm" style="rounded=1;whiteSpace=wrap;html=1;fillColor=#f5f5f5;strokeColor=#666666;fontSize=11;align=center;" vertex="1" parent="1">
          <mxGeometry x="570" y="560" width="80" height="50" as="geometry" />
        </mxCell>
        
        <mxCell id="log-aggregation" value="Log Aggregation&#xa;Serilog â†’ PostgreSQL" style="rounded=1;whiteSpace=wrap;html=1;fillColor=#f5f5f5;strokeColor=#666666;fontSize=11;align=center;" vertex="1" parent="1">
          <mxGeometry x="670" y="560" width="80" height="50" as="geometry" />
        </mxCell>
        
        <!-- Deployment Commands -->
        <mxCell id="deployment-commands" value="Deployment Commands" style="rounded=1;whiteSpace=wrap;html=1;fillColor=#f5f5f5;strokeColor=#666666;fontSize=14;fontStyle=1;" vertex="1" parent="1">
          <mxGeometry x="800" y="500" width="200" height="40" as="geometry" />
        </mxCell>
        
        <mxCell id="deploy-command" value="docker stack deploy&#xa;-c docker-compose.swarm.yml certa" style="rounded=1;whiteSpace=wrap;html=1;fillColor=#f5f5f5;strokeColor=#666666;fontSize=10;align=center;fontFamily=monospace;" vertex="1" parent="1">
          <mxGeometry x="820" y="560" width="160" height="50" as="geometry" />
        </mxCell>
        
        <!-- Connections -->
        <mxCell id="conn1" value="" style="endArrow=classic;html=1;rounded=0;exitX=1;exitY=0.5;exitDx=0;exitDy=0;entryX=0;entryY=0.5;entryDx=0;entryDy=0;strokeWidth=2;strokeColor=#d6b656;" edge="1" parent="1" source="users" target="load-balancer">
          <mxGeometry width="50" height="50" relative="1" as="geometry">
            <mxPoint x="160" y="155" as="sourcePoint" />
            <mxPoint x="210" y="105" as="targetPoint" />
          </mxGeometry>
        </mxCell>
        
        <mxCell id="conn2" value="" style="endArrow=classic;html=1;rounded=0;exitX=1;exitY=0.5;exitDx=0;exitDy=0;entryX=0;entryY=0.5;entryDx=0;entryDy=0;strokeWidth=2;strokeColor=#d6b656;" edge="1" parent="1" source="admins" target="load-balancer">
          <mxGeometry width="50" height="50" relative="1" as="geometry">
            <mxPoint x="260" y="155" as="sourcePoint" />
            <mxPoint x="310" y="105" as="targetPoint" />
          </mxGeometry>
        </mxCell>
        
        <mxCell id="conn3" value="" style="endArrow=classic;html=1;rounded=0;exitX=1;exitY=0.5;exitDx=0;exitDy=0;entryX=0;entryY=0.5;entryDx=0;entryDy=0;strokeWidth=2;strokeColor=#d6b656;" edge="1" parent="1" source="load-balancer" target="manager-node">
          <mxGeometry width="50" height="50" relative="1" as="geometry">
            <mxPoint x="480" y="170" as="sourcePoint" />
            <mxPoint x="530" y="120" as="targetPoint" />
          </mxGeometry>
        </mxCell>
        
        <mxCell id="conn4" value="" style="endArrow=classic;html=1;rounded=0;exitX=1;exitY=0.5;exitDx=0;exitDy=0;entryX=0;entryY=0.5;entryDx=0;entryDy=0;strokeWidth=2;strokeColor=#d6b656;" edge="1" parent="1" source="load-balancer" target="worker-node1">
          <mxGeometry width="50" height="50" relative="1" as="geometry">
            <mxPoint x="480" y="170" as="sourcePoint" />
            <mxPoint x="530" y="120" as="targetPoint" />
          </mxGeometry>
        </mxCell>
        
        <mxCell id="conn5" value="" style="endArrow=classic;html=1;rounded=0;exitX=1;exitY=0.5;exitDx=0;exitDy=0;entryX=0;entryY=0.5;entryDx=0;entryDy=0;strokeWidth=2;strokeColor=#d6b656;" edge="1" parent="1" source="load-balancer" target="worker-node2">
          <mxGeometry width="50" height="50" relative="1" as="geometry">
            <mxPoint x="480" y="170" as="sourcePoint" />
            <mxPoint x="530" y="120" as="targetPoint" />
          </mxGeometry>
        </mxCell>
        
        <mxCell id="conn6" value="" style="endArrow=classic;html=1;rounded=0;exitX=0.5;exitY=1;exitDx=0;exitDy=0;entryX=0.5;entryY=0;entryDx=0;entryDy=0;strokeWidth=2;strokeColor=#b85450;" edge="1" parent="1" source="manager-services" target="postgresql-storage">
          <mxGeometry width="50" height="50" relative="1" as="geometry">
            <mxPoint x="630" y="290" as="sourcePoint" />
            <mxPoint x="630" y="340" as="targetPoint" />
          </mxGeometry>
        </mxCell>
        
        <mxCell id="conn7" value="" style="endArrow=classic;html=1;rounded=0;exitX=0.5;exitY=1;exitDx=0;exitDy=0;entryX=0.5;entryY=0;entryDx=0;entryDy=0;strokeWidth=2;strokeColor=#b85450;" edge="1" parent="1" source="worker1-services" target="postgresql-storage">
          <mxGeometry width="50" height="50" relative="1" as="geometry">
            <mxPoint x="780" y="290" as="sourcePoint" />
            <mxPoint x="630" y="340" as="targetPoint" />
          </mxGeometry>
        </mxCell>
        
        <mxCell id="conn8" value="" style="endArrow=classic;html=1;rounded=0;exitX=0.5;exitY=1;exitDx=0;exitDy=0;entryX=0.5;entryY=0;entryDx=0;entryDy=0;strokeWidth=2;strokeColor=#b85450;" edge="1" parent="1" source="worker2-services" target="postgresql-storage">
          <mxGeometry width="50" height="50" relative="1" as="geometry">
            <mxPoint x="930" y="290" as="sourcePoint" />
            <mxPoint x="630" y="340" as="targetPoint" />
          </mxGeometry>
        </mxCell>
        
        <mxCell id="conn9" value="" style="endArrow=classic;html=1;rounded=0;exitX=0.5;exitY=1;exitDx=0;exitDy=0;entryX=0.5;entryY=0;entryDx=0;entryDy=0;strokeWidth=2;strokeColor=#b85450;" edge="1" parent="1" source="manager-services" target="ca-keys-storage">
          <mxGeometry width="50" height="50" relative="1" as="geometry">
            <mxPoint x="630" y="290" as="sourcePoint" />
            <mxPoint x="780" y="340" as="targetPoint" />
          </mxGeometry>
        </mxCell>
        
        <mxCell id="conn10" value="" style="endArrow=classic;html=1;rounded=0;exitX=0.5;exitY=1;exitDx=0;exitDy=0;entryX=0.5;entryY=0;entryDx=0;entryDy=0;strokeWidth=2;strokeColor=#b85450;" edge="1" parent="1" source="worker1-services" target="ca-keys-storage">
          <mxGeometry width="50" height="50" relative="1" as="geometry">
            <mxPoint x="780" y="290" as="sourcePoint" />
            <mxPoint x="780" y="340" as="targetPoint" />
          </mxGeometry>
        </mxCell>
        
        <mxCell id="conn11" value="" style="endArrow=classic;html=1;rounded=0;exitX=0.5;exitY=1;exitDx=0;exitDy=0;entryX=0.5;entryY=0;entryDx=0;entryDy=0;strokeWidth=2;strokeColor=#b85450;" edge="1" parent="1" source="worker2-services" target="ca-keys-storage">
          <mxGeometry width="50" height="50" relative="1" as="geometry">
            <mxPoint x="930" y="290" as="sourcePoint" />
            <mxPoint x="780" y="340" as="targetPoint" />
          </mxGeometry>
        </mxCell>
        
        <!-- Legend -->
        <mxCell id="legend" value="Deployment Components" style="text;html=1;strokeColor=none;fillColor=none;align=left;verticalAlign=top;whiteSpace=wrap;rounded=0;fontSize=14;fontStyle=1;" vertex="1" parent="1">
          <mxGeometry x="50" y="650" width="150" height="30" as="geometry" />
        </mxCell>
        
        <mxCell id="legend1" value="Load Balancer" style="rounded=1;whiteSpace=wrap;html=1;fillColor=#fff2cc;strokeColor=#d6b656;fontSize=10;" vertex="1" parent="1">
          <mxGeometry x="50" y="680" width="80" height="20" as="geometry" />
        </mxCell>
        
        <mxCell id="legend2" value="Swarm Nodes" style="rounded=1;whiteSpace=wrap;html=1;fillColor=#d5e8d4;strokeColor=#82b366;fontSize=10;" vertex="1" parent="1">
          <mxGeometry x="140" y="680" width="80" height="20" as="geometry" />
        </mxCell>
        
        <mxCell id="legend3" value="Shared Storage" style="rounded=1;whiteSpace=wrap;html=1;fillColor=#f8cecc;strokeColor=#b85450;fontSize=10;" vertex="1" parent="1">
          <mxGeometry x="230" y="680" width="80" height="20" as="geometry" />
        </mxCell>
        
        <mxCell id="legend4" value="External Services" style="rounded=1;whiteSpace=wrap;html=1;fillColor=#ffe6cc;strokeColor=#d79b00;fontSize=10;" vertex="1" parent="1">
          <mxGeometry x="320" y="680" width="80" height="20" as="geometry" />
        </mxCell>
        
        <mxCell id="legend5" value="Configuration" style="rounded=1;whiteSpace=wrap;html=1;fillColor=#f5f5f5;strokeColor=#666666;fontSize=10;" vertex="1" parent="1">
          <mxGeometry x="410" y="680" width="80" height="20" as="geometry" />
        </mxCell>
        
      </root>
    </mxGraphModel>
  </diagram>
</mxfile>
